<svg width="512" height="512" viewBox="0 0 512 512" fill="none" xmlns="http://www.w3.org/2000/svg">
<path d="M241.671 55.7335C249.842 49.4222 261.251 49.4221 269.422 55.7335L441.482 188.637C442.436 189.375 443.308 190.157 444.1 190.975L488.696 226.046C502.905 237.221 494.994 260.031 476.91 260.032H451.068V437.437C451.067 448.539 443.38 457.846 433.032 460.341C431.866 460.767 430.607 461 429.293 461H347.636C341.624 461 336.749 456.131 336.749 450.125V304.212H336.234C331.699 266.473 297.71 237.148 256.454 237.147C216.222 237.147 182.902 265.034 177.066 301.416V450.125C177.065 456.13 172.191 461 166.178 461H84.5224L84.2415 460.996C84.2395 460.996 84.2373 460.996 84.2353 460.996C71.3397 460.842 60.9333 450.354 60.9328 437.437V260.032H35.0901C17.0056 260.032 9.09526 237.221 23.3042 226.046L65.1352 193.149C66.3545 191.524 67.8413 190.005 69.6114 188.637L241.671 55.7335Z" fill="#E0A24D"/>
<path d="M227.371 333.683C239.554 321.082 259.657 320.732 272.273 332.901L278.154 338.574L278.047 338.682L278.982 339.795C282.202 343.629 281.702 349.346 277.864 352.563L277.086 353.215C273.304 356.385 267.695 355.944 264.45 352.264L264.364 352.349C263.662 351.222 262.811 350.161 261.812 349.196C255.255 342.872 244.807 343.055 238.475 349.603L214.842 374.05C208.51 380.599 208.693 391.036 215.249 397.36C221.806 403.683 232.253 403.502 238.584 396.953L247.66 387.564L247.717 387.62C251.713 384.232 257.709 384.42 261.481 388.188C264.971 391.674 265.39 397.062 262.745 401.009L251.556 412.584C239.373 425.185 219.27 425.535 206.655 413.366L200.355 407.29C187.74 395.121 187.389 375.041 199.572 362.439L227.371 333.683Z" fill="#E0A24D"/>
<path d="M265.684 298.34C277.302 285.894 296.822 285.213 309.282 296.819L315.305 302.43C327.765 314.036 328.447 333.534 316.828 345.98L290.129 374.579C278.51 387.025 258.99 387.706 246.53 376.101L242.077 371.952C239.466 368.333 239.542 363.261 242.542 359.688C246.085 355.471 252.399 354.899 256.621 358.438L257 358.756C257.107 358.86 257.214 358.965 257.324 359.067C257.837 359.545 258.375 359.98 258.931 360.373L259.431 360.792L259.479 360.743C265.584 364.677 273.817 363.807 278.946 358.313L300.405 335.325C306.167 329.153 305.829 319.483 299.65 313.727C293.471 307.972 283.791 308.309 278.029 314.481L272.362 320.551L272.191 320.381C268.275 323.725 262.38 323.55 258.675 319.849C255.123 316.3 254.815 310.739 257.748 306.839L265.684 298.34Z" fill="#E0A24D"/>
</svg>
